<svg xmlns="http://www.w3.org/2000/svg" width="158" height="195.92" viewBox="0 0 158 195.92"><g transform="translate(123 -173)"><g transform="translate(-123 173)"><path d="M206,34.76C206,15.269,171.3,0,127,0S48,15.269,48,34.76a16.516,16.516,0,0,0,.316,3.16H48V161.16c0,19.491,34.7,34.76,79,34.76s79-15.269,79-34.76V37.92h-.316A16.515,16.515,0,0,0,206,34.76Zm-6.32,126.4c0,13.733-29.2,28.44-72.68,28.44s-72.68-14.707-72.68-28.44V143.417c11.945,12.406,39.639,20.9,72.68,20.9s60.735-8.5,72.68-20.9Zm0-31.6c0,13.733-29.2,28.44-72.68,28.44s-72.68-14.707-72.68-28.44V111.817c11.945,12.406,39.639,20.9,72.68,20.9s60.735-8.5,72.68-20.9Zm0-31.6c0,13.733-29.2,28.44-72.68,28.44S54.32,111.693,54.32,97.96V80.217c11.945,12.406,39.639,20.9,72.68,20.9s60.735-8.5,72.68-20.9Zm0-31.6c0,13.733-29.2,28.44-72.68,28.44S54.32,80.093,54.32,66.36V48.617C66.265,61.023,93.959,69.52,127,69.52s60.735-8.5,72.68-20.9ZM127,63.2c-43.475,0-72.68-14.707-72.68-28.44S83.525,6.32,127,6.32s72.68,14.707,72.68,28.44S170.475,63.2,127,63.2Z" transform="translate(-48)" fill="#fff"/></g></g></svg>